<svg width="273" height="312" viewBox="0 0 273 312" fill="none" xmlns="http://www.w3.org/2000/svg">
<circle cx="136.5" cy="175.5" r="134" fill="#F2F2F2" fill-opacity="0.3" stroke="url(#paint0_linear)" stroke-width="5"/>
<path d="M183.5 44C195.5 60.8 197.5 84.6667 197 94.5C190.167 96 174.4 98.1 166 94.5C157.6 90.9 153.5 70.3333 152.5 60.5C154.167 63.1667 157.4 63.6 157 44C156.5 19.5 135.5 11.5 127 2.00001C118.5 -7.49999 168.5 23 183.5 44Z" fill="url(#paint1_linear)"/>
<path d="M144 55C160 55 174.667 81.3333 180 94.5C153.167 103.833 99.6 124.7 100 133.5C100.4 142.3 88.5 155.833 82.5 161.5C83.8333 155.833 85.5 143.6 81.5 140C77.5 136.4 72.5 138.5 70.5 140C73.1667 138 78.5 132.8 78.5 128C78.5 124.912 80.708 121.796 82.9929 119.478C76.2557 121.897 61.8734 120.075 54 118.5C57.8333 117.833 67.3 115.7 74.5 112.5C83.5 108.5 82 104 92 86C99.9266 71.7322 128.142 69.376 141.629 69.9824C140.068 69.1569 138.205 68.17 136 67C116.4 56.6 101.5 62.6667 96.5 67C101 56 124 55 144 55Z" fill="#E0E0E0" fill-opacity="0.5"/>
<path d="M165.5 162.5C167.5 174.9 197 252.333 211.5 289.5C203.048 290.984 186.068 303.046 176 304.5C165.321 306.043 139 315.8 109 308C84 301.5 94 303 65.5001 291.5C62.0478 290.107 37.198 272.41 39.1985 269.5C58.1973 241.863 99.7943 236.794 120 238C121.667 237.5 125.6 232.8 128 218C129.492 208.799 117.406 186.239 104.043 165C95.9105 152.075 91 139.5 91 133C91 126.5 94.853 121.677 103 116.521C138.752 93.898 186.136 68.1436 192 81.5C201 102 197 103.5 198 115.5C198.8 125.1 210 141.5 215.5 148.5C207 144.667 187 137.7 175 140.5C160 144 163 147 165.5 162.5Z" fill="#E0E0E0"/>
<path d="M191 128C192.2 130 195.833 134.333 197.5 136.5L208.5 140.5L204 126.5C204.333 124 203.7 118.5 198.5 116.5C192 114 190 110.5 186 107.5C182 104.5 179.5 107.5 178 108.5C176.5 109.5 180 122 181 122.5C182 123 189.5 125.5 191 128Z" fill="#A04355"/>
<path d="M261 174.5C256.6 173.3 226.5 155.333 212 146.5C205.752 141.814 196 134 196 134C196 134 195.8 128.4 193 128C189.5 127.5 182.044 119.348 184 120C185.5 120.5 188.333 123 190.5 123C190 121.167 189.8 118.2 193 121C196.2 123.8 201 124.833 203 125V121C209.833 126.667 226.6 140.3 239 149.5C251.4 158.7 262.5 170 266.5 174.5C266.5 175 265.4 175.7 261 174.5Z" fill="#161619"/>
<circle cx="136.5" cy="175.5" r="134" stroke="#4F4F4F" stroke-width="5"/>
<path d="M183.5 44C195.5 60.8 189.5 60.5 188 66.5C183.5 73.5 178.4 82.6 170 79C161.6 75.4 153.5 70.3333 152.5 60.5C154.167 63.1667 157.4 63.6 157 44C156.5 19.5 135.5 11.5 127 2.00001C118.5 -7.49999 168.5 23 183.5 44Z" fill="url(#paint2_linear)"/>
<circle cx="183" cy="112" r="4" fill="white"/>
<defs>
<linearGradient id="paint0_linear" x1="136.5" y1="39" x2="136.5" y2="312" gradientUnits="userSpaceOnUse">
<stop stop-color="#78E4C4"/>
<stop offset="1" stop-color="#9262F0"/>
</linearGradient>
<linearGradient id="paint1_linear" x1="161.552" y1="0.214172" x2="161.552" y2="96.4878" gradientUnits="userSpaceOnUse">
<stop stop-color="#78E4C4"/>
<stop offset="1" stop-color="#9262F0"/>
</linearGradient>
<linearGradient id="paint2_linear" x1="158.431" y1="0.214172" x2="158.431" y2="79.8138" gradientUnits="userSpaceOnUse">
<stop stop-color="#78E4C4"/>
<stop offset="1" stop-color="#9262F0"/>
</linearGradient>
</defs>
</svg>
